<svg xmlns="http://www.w3.org/2000/svg" xml:space="preserve" style="enable-background:new 0 0 400 400" viewBox="0 0 400 400"><style>.st34{fill:#1a73e7}.st36{fill:#f0f1f2}.st40{fill:none;stroke:#9aa1a5;stroke-width:2.9565;stroke-linecap:round;stroke-linejoin:round;stroke-miterlimit:10}.st42{fill:#ffc928}</style><filter id="AI_Shadow_3" width="140%" height="130%" x="-15%" y="-15%" filterUnits="objectBoundingBox"><feGaussianBlur in="SourceAlpha" result="blur" stdDeviation="10"/><feOffset dy="5" in="blur" result="offsetBlurredAlpha"/><feMerge><feMergeNode in="offsetBlurredAlpha"/><feMergeNode in="SourceGraphic"/></feMerge></filter><g id="Layer_1"><g id="svg_shadow_41_" style="opacity:.3;filter:url(#AI_Shadow_3)"><linearGradient id="SVGID_00000082350361358288754960000010111782194701250200_" x1="28.894" x2="371.106" y1="200" y2="200" gradientUnits="userSpaceOnUse"><stop offset="0" style="stop-color:#fff"/><stop offset="1" style="stop-color:#000"/></linearGradient><circle cx="200" cy="200" r="171.1" style="fill:url(#SVGID_00000082350361358288754960000010111782194701250200_)"/></g><path d="M364.1 200.6c0 54.4-26.3 102.7-66.9 132.7-22.5 16.7-49.4 27.8-78.6 31.2-6.5.8-13 1.2-19.7 1.2-6.7 0-13.2-.4-19.7-1.2-27.8-3.3-53.5-13.5-75.3-28.9-42.4-29.9-70.1-79.3-70.1-135.1 0-91.2 73.9-165.2 165.2-165.2s165.1 74.1 165.1 165.3z" style="fill:#153044"/><path d="M297.2 105.6v231c-22.5 16.7-49.4 27.8-78.6 31.2h-39.4c-27.8-3.3-53.5-13.5-75.3-28.9V105.6c0-6.5 5.3-11.7 11.7-11.7h169.8c6.6 0 11.8 5.2 11.8 11.7z" class="st34"/><path d="M290.7 269.6s0 .1 0 0v1c0 2.2-.1 5.3-.5 9.1-1.5 13.2-6.8 33.5-24.1 43.9l-4.9-.1-147.8.5c23.9-16.8 21-54.4 21-54.4h.1l-.1-154.3h156.2v77.4l.1 76.9z" style="opacity:.3;fill:#1b3a57"/><path d="M284.8 258.1s0 .1 0 0v1c-.1 6.2.2 39.6-22 53l-145.3-1.6-.2-203.4h167.4l.1 151z" class="st36"/><path d="M117.3 258.1s2.9 37.5-21 54.4l166.4-.4-145.4-54z" class="st36"/><path d="M242.8 86h-26.2v-.3c0-8.9-7.2-16.1-16.1-16.1-8.9 0-16.1 7.2-16.1 16.1v.3h-26.2c-5.3 0-9.6 4.3-9.6 9.6v19.1h103.7V95.6c.1-5.3-4.2-9.6-9.5-9.6zm-42.2 0c-2.7 0-5-2.2-5-5 0-2.7 2.2-5 5-5 2.7 0 5 2.2 5 5-.1 2.8-2.3 5-5 5z" style="fill:#ffa000"/><g style="opacity:.22"><path d="M297.2 193.5v84.8c-2 .3-4 .4-6 .4-23.7 0-42.8-19.2-42.8-42.8 0-1.8.1-3.7.3-5.4.1-.7.2-1.3.3-2 1.3-7.4 4.5-14.1 9.1-19.7.4-.5.8-1 1.2-1.4 7.8-8.7 19.2-14.2 31.9-14.2 2.1-.1 4.1 0 6 .3z" style="fill:#1b3a57"/></g><path d="M157.3 264.4h-17.1c-1.8 0-3.3-1.5-3.3-3.3V244c0-1.8 1.5-3.3 3.3-3.3h17.1c1.8 0 3.3 1.5 3.3 3.3v17.1c0 1.9-1.4 3.3-3.3 3.3zM176.1 248h88.7M176.1 257.2h44.4M157.3 169.2h-17.1c-1.8 0-3.3-1.5-3.3-3.3v-17.1c0-1.8 1.5-3.3 3.3-3.3h17.1c1.8 0 3.3 1.5 3.3 3.3v17.1c0 1.8-1.4 3.3-3.3 3.3zM176.1 152.7h88.7M176.1 161.9h44.4M157.3 216.8h-17.1c-1.8 0-3.3-1.5-3.3-3.3v-17.1c0-1.8 1.5-3.3 3.3-3.3h17.1c1.8 0 3.3 1.5 3.3 3.3v17.1c0 1.8-1.4 3.3-3.3 3.3zM176.1 200.4h88.7M176.1 209.6h88.7" class="st40"/><path d="M334.1 227.7c0 23.7-19.2 42.8-42.8 42.8-23.7 0-42.8-19.2-42.8-42.8 0-1.8.1-3.7.3-5.4.1-.7.2-1.3.3-2 1.3-7.4 4.5-14.1 9.1-19.7.4-.5.8-1 1.2-1.4 7.8-8.7 19.2-14.2 31.9-14.2 12.2 0 23.3 5.1 31.1 13.3l.6.6c5.4 5.9 9.2 13.4 10.6 21.7 0 .2.1.3.1.5.2 2.1.4 4.3.4 6.6z" style="fill:#fff"/><path d="m312.8 224.4-31.3-17.6c-2.5-1.4-5.6.5-5.6 3.4v35.3c0 2.9 3.1 4.7 5.6 3.4l31.3-17.6c2.7-1.6 2.7-5.5 0-6.9z" class="st34"/><path d="M279.7 206.7c.6 0 1.1.1 1.6.4l31.3 17.6c1.1.6 1.8 1.7 1.8 3s-.7 2.4-1.8 3l-31.3 17.6c-.5.3-1.1.4-1.6.4-1.9 0-3.4-1.5-3.4-3.4V210c-.1-1.8 1.5-3.3 3.4-3.3m0-.4c-2 0-3.8 1.6-3.8 3.8v35.3c0 2.2 1.8 3.8 3.8 3.8.6 0 1.2-.1 1.8-.5l31.3-17.6c2.7-1.4 2.7-5.3 0-6.8l-31.3-17.6c-.6-.3-1.3-.4-1.8-.4z" class="st34"/><path d="M367.6 200.4c0 30.7-8.3 59.5-22.7 84.2-6.9 11.8-15.2 22.7-24.7 32.4-3.1 3.2-6.4 6.3-9.8 9.3-21.1 18.5-46.9 31.7-75.3 37.7-8.7 1.8-17.7 3-26.8 3.4-2.6.1-5.2.2-7.8.2-9.2 0-18.2-.7-26.9-2.2-18.3-3-35.6-8.9-51.4-17.3-3.5-1.8-6.9-3.8-10.2-5.9-6.1-3.8-11.9-8-17.5-12.6-34-27.9-56.8-69-60.6-115.4-.4-4.6-.6-9.2-.6-13.9 0-38.8 13.2-74.5 35.4-102.9 11-14.1 24.3-26.5 39.4-36.5 15.7-10.4 33.2-18.2 52-22.9 12.5-3.1 25.6-4.8 39-4.9h1.3c92.3.1 167.2 74.9 167.2 167.3z" style="fill:none;stroke:#fff;stroke-width:9.8552;stroke-miterlimit:10"/><circle cx="78" cy="257.6" r="3.2" class="st42"/><circle cx="63.6" cy="244.3" r="1.9" class="st42"/><path d="m81.9 218.8-3.1-7.4c-.4-.9-1.7-.9-2.1 0l-2.8 7.5-6.9 2.5c-.9.4-.9 1.7 0 2.1l7.5 2.8 2.5 6.9c.4.9 1.7.9 2.1 0l2.3-7 7.4-3.1c.9-.4.9-1.7 0-2.1l-6.9-2.2zM327.1 160.1l-2-4.9a.77.77 0 0 0-1.4 0l-1.9 5-4.6 1.6c-.6.3-.6 1.1 0 1.4l5 1.9 1.6 4.6c.3.6 1.1.6 1.4 0l1.5-4.6 4.9-2c.6-.3.6-1.1 0-1.4l-4.5-1.6z" class="st42"/><circle cx="339.4" cy="177.4" r="1.9" class="st42"/></g></svg>